<svg xmlns="http://www.w3.org/2000/svg" version="1.1" xmlns:xlink="http://www.w3.org/1999/xlink" xmlns:svgjs="http://svgjs.dev/svgjs" width="1500" height="1500" viewBox="0 0 1500 1500"><rect width="1500" height="1500" fill="#000000"></rect><g transform="matrix(0.6666666666666666,0,0,0.6666666666666666,249.50000000000006,249.50000000000006)"><svg viewBox="0 0 280 280" data-background-color="#4f2730" preserveAspectRatio="xMidYMid meet" height="1500" width="1500" xmlns="http://www.w3.org/2000/svg" xmlns:xlink="http://www.w3.org/1999/xlink"><g id="tight-bounds" transform="matrix(1,0,0,1,0.13999999999998636,0.13999999999998636)"><svg viewBox="0 0 279.72 279.72" height="279.72" width="279.72"><g><svg viewBox="0 0 279.72 279.72" height="279.72" width="279.72"><g><svg viewBox="0 0 279.72 279.72" height="279.72" width="279.72"><g id="textblocktransform"><svg viewBox="0 0 279.72 279.72" height="279.72" width="279.72" id="textblock"><g><svg viewBox="0 0 279.72 279.72" height="279.72" width="279.72"><g transform="matrix(1,0,0,1,57.446704652707865,57.446704652707865)"><svg viewBox="0 0 164.8265906945843 164.8265906945843" height="164.8265906945843" width="164.8265906945843"><g id="icon-0"><circle r="82" cx="82.41329534729215" cy="82.41329534729215" fill="#ffffff" data-fill-palette-color="accent"></circle><svg xmlns="http://www.w3.org/2000/svg" xmlns:xlink="http://www.w3.org/1999/xlink" xmlns:serif="http://www.serif.com/" viewBox="10.957 21.844 79.255 52.603" version="1.1" xml:space="preserve" style="" x="24.72398860418764" y="24.723988604187646" fill-rule="evenodd" clip-rule="evenodd" stroke-linejoin="round" stroke-miterlimit="1.41421" height="115.378613486209" width="115.378613486209" class="icon-jxe-0" data-fill-palette-color="quaternary" id="jxe-0"><path d="M90.212 27.937H69.686V30.39H74.221C74.221 31.581 74.22 29.583 74.219 34.818H89.553C89.551 37.907 89.539 42.416 89.539 42.416 84.16 42.407 86.035 42.413 83.876 42.414 83.837 51.024 83.809 71.72 83.811 74.447H16.614C16.616 71.607 16.618 50.971 16.619 42.416 10.581 42.406 14.991 42.416 10.957 42.413 10.957 42.413 11.024 37.781 11.022 34.818H55.249C55.257 29.548 55.262 31.538 55.261 30.39H59.782L59.786 27.937H38.213V21.844H90.212zM18.275 40.485V72.506C58.704 72.585 56.913 72.473 81.931 72.506V40.485L87.892 40.48V36.759C47.463 36.68 37.92 36.792 12.902 36.759V40.473zM75.035 68.135C69.655 68.127 28.986 68.135 24.952 68.133 24.952 68.133 25.019 43.5 25.017 40.537H75.048zM26.897 66.193L73.388 66.2V42.479C32.958 42.4 51.915 42.512 26.897 42.479zM72.561 34.818V32.331C61.848 32.31 66.429 32.344 57.141 32.331V34.818zM68.027 27.937H61.675V30.39H68.027zM88.058 23.747H39.919V26H88.058z" fill="#000000" data-fill-palette-color="quaternary"></path></svg></g></svg></g><g id="text-0"><path d="M25.802 111.532l-1.389-0.616c0.109-1.037 0.032-1.784-0.232-2.24-0.263-0.456-0.837-0.816-1.721-1.079v0l-13.176-3.953c-0.668-0.199-1.14-0.254-1.416-0.165-0.283 0.087-0.492 0.36-0.629 0.818v0l-0.323 1.337-0.148 0.031-1.318-0.638c0.099-0.334 0.189-0.589 0.27-0.765v0l0.939-2.939c0.281-0.943 0.543-2.173 0.788-3.691v0l1.38 0.539c-0.151 0.889-0.15 1.524 0 1.904 0.153 0.373 0.524 0.669 1.116 0.888v0c2.411 0.86 4.94 1.727 7.589 2.601 2.64 0.878 4.589 1.505 5.847 1.879v0c0.858 0.255 1.456 0.33 1.794 0.223 0.336-0.1 0.585-0.421 0.747-0.964v0c0.107-0.36 0.243-0.926 0.409-1.697v0l0.145-0.021 1.359 0.715c-0.086 0.288-0.167 0.514-0.244 0.676v0c-0.476 1.455-0.835 2.589-1.076 3.401v0c-0.306 1.028-0.543 2.28-0.711 3.756z" fill="#ffffff" data-fill-palette-color="primary"></path><path d="M32.134 91.21c0.113-0.668 0.072-1.204-0.122-1.605-0.191-0.393-0.545-0.705-1.063-0.937v0l-5.865-2.778c-0.998-0.448-1.861-0.576-2.59-0.387-0.735 0.187-1.281 0.676-1.636 1.468v0c-0.288 0.642-0.414 1.365-0.377 2.168 0.034 0.809 0.131 1.545 0.29 2.209v0c4.04 2.03 6.45 3.219 7.229 3.568v0c0.617 0.277 1.086 0.393 1.405 0.35 0.322-0.05 0.573-0.275 0.752-0.674v0c0.098-0.218 0.182-0.431 0.253-0.639 0.065-0.211 0.115-0.357 0.151-0.438v0l0.147-0.001 1.169 0.85c-0.103 0.163-0.282 0.503-0.536 1.018-0.251 0.509-0.511 1.063-0.779 1.661v0c-0.232 0.517-0.463 1.099-0.693 1.745-0.233 0.652-0.384 1.082-0.455 1.29v0l-1.158-0.699c0.16-0.625 0.166-1.113 0.017-1.464-0.156-0.354-0.511-0.656-1.066-0.905v0l-7.295-3.273c-0.68-0.305-1.202-0.408-1.568-0.31-0.366 0.098-0.669 0.415-0.91 0.951v0l-0.147 0.328-0.163 0.038-0.95-0.538c0.246-0.916 0.466-1.839 0.659-2.771 0.187-0.935 0.306-1.533 0.356-1.795v0l0.314-0.073c0.108 0.093 0.337 0.267 0.687 0.522 0.35 0.254 0.73 0.485 1.139 0.691v0l0.123-0.024c-0.497-2.949-0.599-4.751-0.305-5.406v0c0.565-1.259 1.362-2.1 2.39-2.523 1.028-0.422 2.129-0.371 3.301 0.156v0c0.2 0.09 1.089 0.56 2.67 1.411v0c2.003 1.094 3.414 1.823 4.23 2.19v0c0.574 0.257 1.034 0.366 1.381 0.327 0.341-0.042 0.595-0.25 0.763-0.624v0c0.101-0.224 0.185-0.438 0.253-0.639 0.065-0.211 0.115-0.357 0.152-0.438v0l0.15-0.011 1.182 0.822c-0.106 0.17-0.28 0.5-0.523 0.99-0.242 0.49-0.497 1.032-0.762 1.625v0c-0.235 0.524-0.452 1.142-0.652 1.853-0.2 0.712-0.325 1.176-0.377 1.392v0z" fill="#ffffff" data-fill-palette-color="primary"></path><path d="M44.823 72.32c-0.929 1.425-2.109 1.815-3.539 1.168v0l-0.206 0.147c0.061 2.748-0.034 4.313-0.284 4.697v0c-0.679 1.042-1.525 1.808-2.537 2.298-1.013 0.49-2.099 0.667-3.259 0.531-1.163-0.13-2.314-0.566-3.453-1.309v0c-1.3-0.847-2.296-1.933-2.991-3.258-0.7-1.329-1.033-2.733-0.999-4.212 0.04-1.475 0.459-2.825 1.258-4.05v0c0.381-0.584 0.828-1.189 1.343-1.816v0l-4.56-2.973c-0.985-0.642-1.697-0.625-2.138 0.051v0c-0.082 0.126-0.16 0.271-0.234 0.434-0.065 0.162-0.101 0.268-0.11 0.32v0l-0.941-0.772c0.406-0.861 0.792-1.772 1.157-2.733 0.365-0.961 0.596-1.577 0.692-1.849v0l0.467 0.072c0.179 0.402 1.992 1.837 5.441 4.305 3.449 2.468 7.177 5.008 11.184 7.62v0c0.406 0.265 0.784 0.368 1.132 0.309 0.348-0.059 0.636-0.262 0.863-0.611v0c0.168-0.258 0.283-0.541 0.347-0.851 0.057-0.313 0.082-0.583 0.074-0.808-0.008-0.225-0.016-0.369-0.025-0.432v0l0.685-0.093c0.058 0.111 0.163 0.375 0.315 0.793 0.162 0.415 0.293 0.909 0.393 1.48 0.091 0.573 0.066 1.087-0.075 1.542zM39.294 76.73c0.25-0.384 0.412-0.87 0.485-1.458 0.072-0.598 0.094-1.126 0.066-1.584-0.027-0.458-0.046-0.756-0.055-0.892v0l-7.522-4.904c-0.074 0.025-0.23 0.115-0.469 0.27-0.249 0.156-0.547 0.402-0.897 0.737-0.345 0.33-0.68 0.743-1.005 1.241v0c-0.799 1.225-1.009 2.462-0.632 3.711 0.371 1.245 1.281 2.34 2.729 3.284v0c0.916 0.597 1.853 0.98 2.812 1.148 0.959 0.168 1.839 0.114 2.64-0.164 0.803-0.268 1.419-0.731 1.848-1.389z" fill="#ffffff" data-fill-palette-color="primary"></path><path d="M40.063 59.415c-0.881-0.788-1.593-0.879-2.135-0.273v0c-0.1 0.112-0.197 0.246-0.289 0.401-0.088 0.15-0.141 0.25-0.158 0.299v0l-0.813-0.906c0.473-0.723 0.951-1.529 1.434-2.417 0.488-0.884 0.807-1.46 0.957-1.73v0l0.427 0.107c0.277 0.541 1.105 1.548 2.483 3.02 1.384 1.477 2.784 2.848 4.2 4.114v0c1.594 1.426 2.974 1.487 4.14 0.184v0c0.437-0.489 0.726-1.052 0.865-1.689 0.144-0.632 0.274-1.47 0.39-2.511v0l-5.668-5.071c-0.489-0.437-0.91-0.654-1.263-0.649-0.353 0.005-0.735 0.237-1.145 0.695v0l-0.503 0.609-0.79-0.885c0.541-0.809 1.081-1.674 1.62-2.595 0.539-0.93 0.883-1.53 1.032-1.799v0l0.427 0.107c0.245 0.485 1.149 1.523 2.714 3.115 1.565 1.592 3.322 3.261 5.273 5.007v0c0.362 0.324 0.719 0.483 1.072 0.477 0.358-0.01 0.673-0.168 0.946-0.473v0c0.205-0.229 0.362-0.492 0.472-0.789 0.104-0.301 0.17-0.564 0.196-0.788 0.031-0.229 0.045-0.373 0.041-0.43v0l0.697 0.005c0.038 0.153 0.107 0.485 0.208 0.997 0.091 0.513 0.144 1.059 0.156 1.639 0.008 0.575-0.098 0.985-0.316 1.23v0c-1.18 1.319-2.489 1.455-3.926 0.407v0l-0.156 0.081c-0.096 1.317-0.236 2.457-0.419 3.421-0.189 0.959-0.386 1.553-0.591 1.782v0c-0.934 1.044-1.896 1.627-2.886 1.751-0.985 0.127-1.933-0.217-2.845-1.033v0z" fill="#ffffff" data-fill-palette-color="primary"></path><path d="M63.6 52.028c-0.531 0.461-1.045 0.844-1.541 1.149-0.501 0.309-0.912 0.529-1.231 0.661-0.319 0.133-0.528 0.21-0.627 0.232v0l-0.217-0.11c-0.169-0.288-0.555-0.848-1.161-1.68-0.609-0.837-1.083-1.467-1.421-1.888v0l0.759-0.876c0.945 1.089 1.791 1.698 2.538 1.828 0.746 0.13 1.558-0.186 2.435-0.947v0c0.624-0.542 1.03-1.138 1.216-1.789 0.187-0.66 0.104-1.194-0.25-1.602v0c-0.358-0.413-0.882-0.619-1.57-0.619-0.678 0.001-1.851 0.187-3.519 0.558v0c-1.351 0.341-2.459 0.452-3.323 0.333-0.858-0.123-1.545-0.482-2.06-1.075v0c-0.573-0.66-0.895-1.432-0.963-2.314-0.069-0.882 0.111-1.775 0.538-2.679 0.427-0.905 1.069-1.729 1.925-2.473v0c0.397-0.345 0.804-0.648 1.22-0.909 0.41-0.257 0.761-0.453 1.051-0.587 0.285-0.13 0.468-0.216 0.549-0.26v0l0.154 0.084c0.112 0.192 0.367 0.631 0.764 1.318 0.388 0.686 0.852 1.387 1.392 2.104v0l-0.846 0.87c-0.045-0.052-0.124-0.159-0.239-0.322-0.114-0.163-0.228-0.309-0.34-0.438v0c-0.515-0.593-1.052-0.888-1.608-0.884-0.563 0.009-1.197 0.32-1.905 0.934v0c-0.562 0.488-0.921 1.035-1.074 1.639-0.159 0.599-0.074 1.087 0.253 1.464v0c0.345 0.397 0.835 0.623 1.47 0.678 0.641 0.05 1.513-0.056 2.617-0.317v0c1.95-0.453 3.381-0.646 4.291-0.577 0.906 0.064 1.63 0.408 2.172 1.032v0c0.547 0.63 0.851 1.392 0.914 2.288 0.062 0.905-0.119 1.823-0.542 2.752-0.424 0.929-1.031 1.737-1.821 2.422z" fill="#ffffff" data-fill-palette-color="primary"></path><path d="M75.762 42.816c-1.224 0.837-2.257 1.179-3.098 1.027-0.843-0.143-1.672-0.81-2.486-2v0l-4.555-6.659c-0.332-0.485-0.672-0.753-1.022-0.803-0.355-0.047-0.834 0.124-1.438 0.512v0l-0.225-0.094-0.421-0.905c0.355-0.607 0.653-1.266 0.895-1.978 0.246-0.706 0.43-1.308 0.553-1.807 0.121-0.489 0.196-0.809 0.224-0.96v0l0.686-0.159c0.045 0.102 0.168 0.336 0.37 0.703 0.196 0.371 0.465 0.862 0.808 1.472v0l3.918-2.805 0.134 0.033 0.733 1.597-3.969 2.604c1.23 2.065 2.71 4.36 4.438 6.887v0c0.629 0.919 1.231 1.46 1.805 1.621 0.569 0.166 1.242-0.018 2.02-0.55v0c0.271-0.185 0.516-0.407 0.737-0.665 0.221-0.259 0.394-0.489 0.521-0.692 0.126-0.202 0.207-0.332 0.242-0.389v0l0.757 0.525c-0.045 0.164-0.158 0.489-0.338 0.977-0.182 0.497-0.393 1.005-0.633 1.525-0.235 0.516-0.453 0.844-0.656 0.983z" fill="#ffffff" data-fill-palette-color="primary"></path><path d="M81.021 37.704c0.537-0.371 0.817-0.764 0.839-1.181 0.019-0.423-0.217-1.084-0.707-1.984v0l-3.452-6.337c-0.343-0.63-0.672-1.034-0.988-1.213-0.318-0.169-0.669-0.149-1.053 0.06v0c-0.156 0.085-0.28 0.164-0.372 0.238-0.098 0.077-0.16 0.134-0.187 0.172v0l-0.251-0.12-0.405-0.935c0.657-0.537 1.341-1.124 2.053-1.76 0.712-0.637 1.167-1.044 1.365-1.222v0l0.291 0.063c0.059 0.194 0.219 0.624 0.481 1.29 0.259 0.661 0.552 1.263 0.88 1.809v0l0.157 0.031c0.086-1.214 0.362-2.321 0.829-3.323 0.46-0.998 0.979-1.654 1.554-1.967v0c0.27-0.147 0.485-0.245 0.646-0.294 0.157-0.054 0.26-0.079 0.309-0.075v0l0.149 0.059c0.105 0.293 0.332 0.909 0.68 1.848 0.357 0.942 0.722 1.782 1.093 2.521v0l-1.067 0.698c-0.428-0.786-0.767-1.279-1.016-1.478-0.243-0.202-0.517-0.22-0.823-0.054v0c-0.426 0.232-0.783 0.656-1.07 1.272-0.287 0.616-0.47 1.33-0.548 2.143v0c0.286 0.568 0.752 1.509 1.397 2.822 0.64 1.317 1.164 2.373 1.575 3.169v0c0.356 0.654 0.693 1.043 1.009 1.167 0.316 0.123 0.741 0.04 1.275-0.252v0c0.252-0.137 0.496-0.282 0.733-0.434 0.242-0.155 0.411-0.259 0.507-0.311v0l0.091 0.102 0.425 1.403c-0.192 0.105-0.581 0.305-1.167 0.6-0.586 0.296-1.185 0.61-1.797 0.944v0c-0.708 0.386-1.342 0.75-1.902 1.095-0.56 0.344-0.91 0.566-1.05 0.665v0z" fill="#ffffff" data-fill-palette-color="primary"></path><path d="M93.477 33.083l-0.411-1.284c0.537-0.414 0.871-0.834 1.002-1.26 0.127-0.418 0.08-0.888-0.142-1.41v0l-3.251-7.662c-0.462-1.088-1.064-1.475-1.806-1.16v0c-0.138 0.059-0.283 0.139-0.433 0.24-0.144 0.098-0.234 0.166-0.27 0.203v0l-0.35-1.165c0.79-0.484 1.59-1.012 2.4-1.586 0.814-0.583 1.337-0.961 1.568-1.133v0l0.303 0.294c-0.004 0.499 0.385 1.86 1.165 4.082 0.78 2.223 1.673 4.52 2.679 6.892v0c0.246 0.579 0.506 0.973 0.781 1.183 0.278 0.201 0.609 0.22 0.993 0.057v0c0.22-0.093 0.427-0.192 0.62-0.296 0.191-0.111 0.324-0.182 0.399-0.214v0l0.118 0.094 0.308 1.407c-0.187 0.05-0.536 0.172-1.048 0.366-0.511 0.195-1.069 0.42-1.672 0.676v0c-0.522 0.222-1.098 0.525-1.729 0.912-0.63 0.386-1.038 0.641-1.224 0.764zM88.529 14.049c-0.466 0.198-0.891 0.2-1.277 0.008-0.392-0.19-0.678-0.495-0.857-0.917v0c-0.206-0.484-0.21-0.976-0.014-1.476 0.19-0.496 0.537-0.851 1.041-1.065v0c0.459-0.195 0.885-0.197 1.277-0.007 0.386 0.193 0.668 0.499 0.847 0.921v0c0.206 0.484 0.213 0.975 0.023 1.471-0.19 0.496-0.537 0.851-1.04 1.065z" fill="#ffffff" data-fill-palette-color="primary"></path><path d="M113.293 26.333c-1.697 0.502-2.879-0.071-3.545-1.72v0l-0.136 0.008c-0.531 0.976-1.042 1.776-1.535 2.399-0.484 0.628-0.884 0.988-1.198 1.082v0c-1.173 0.347-2.245 0.265-3.216-0.247-0.971-0.511-1.624-1.333-1.959-2.467v0c-0.178-0.603-0.186-1.182-0.021-1.736 0.172-0.55 0.486-0.97 0.941-1.261v0l5.491-3.409-0.377-1.385c-0.31-1.048-0.795-1.796-1.455-2.242-0.651-0.442-1.415-0.533-2.293-0.274v0c-0.59 0.174-1.169 0.492-1.739 0.953-0.567 0.467-1.091 1.046-1.57 1.736v0l-0.187-0.051-0.772-1.237c0.814-0.861 1.654-1.661 2.518-2.401 0.862-0.747 1.513-1.185 1.952-1.315v0c1.363-0.403 2.537-0.362 3.522 0.124 0.983 0.479 1.663 1.357 2.04 2.635v0c0.138 0.465 0.345 1.43 0.621 2.895v0c0.446 2.376 0.761 3.876 0.946 4.498v0c0.138 0.465 0.361 0.788 0.671 0.967 0.303 0.181 0.654 0.213 1.054 0.095v0c0.334-0.099 0.655-0.279 0.962-0.541 0.307-0.262 0.536-0.525 0.685-0.791v0l0.591 0.37c-0.16 0.617-0.412 1.244-0.758 1.882-0.346 0.637-0.757 1.115-1.233 1.433zM106.776 25.802c0.4-0.118 0.827-0.398 1.28-0.838 0.447-0.439 0.826-0.943 1.135-1.512v0l-0.79-3.251-3.885 2.549c-0.553 0.37-0.728 0.899-0.525 1.588v0c0.18 0.609 0.533 1.054 1.057 1.333 0.529 0.271 1.105 0.315 1.728 0.131z" fill="#ffffff" data-fill-palette-color="primary"></path><path d="M118.154 25.186l-0.112-1.345c0.574-0.279 0.958-0.572 1.152-0.879 0.202-0.301 0.296-0.638 0.283-1.011-0.014-0.38-0.1-0.996-0.257-1.849v0l-2.912-15.828c-0.122-0.665-0.279-1.102-0.47-1.31-0.198-0.207-0.532-0.267-1.002-0.18v0c-0.108 0.02-0.352 0.086-0.735 0.197v0l-0.102-0.043-0.071-1.123c1.754-0.587 3.286-1.192 4.596-1.815v0l0.269 0.388c-0.168 0.406 0.046 2.743 0.643 7.011 0.591 4.269 1.321 8.765 2.19 13.49v0c0.119 0.645 0.291 1.089 0.516 1.333 0.227 0.25 0.542 0.338 0.945 0.264v0l1.116-0.279 0.095 0.118-0.006 1.44c-1.43 0.194-2.391 0.336-2.882 0.426v0c-0.733 0.135-1.818 0.466-3.256 0.995z" fill="#ffffff" data-fill-palette-color="primary"></path><path d="M144.698 23.047l-0.09-0.227 0.137-1.28c1.115-0.077 1.882-0.198 2.301-0.364 0.419-0.173 0.63-0.458 0.634-0.854v0c0.005-0.43-0.089-0.954-0.28-1.571v0l-1.036-3.579c-0.526-0.033-1.663-0.059-3.413-0.079v0c-1.045-0.012-2.235 0.064-3.57 0.227v0l-1.247 3.39c-0.205 0.592-0.309 1.018-0.311 1.278v0c-0.005 0.478 0.141 0.825 0.439 1.04 0.305 0.208 0.81 0.316 1.514 0.324v0l1.865 0.021 0.06 0.134-0.21 1.402c-0.259-0.023-0.86-0.071-1.803-0.143-0.935-0.079-1.851-0.123-2.745-0.133v0c-0.813-0.009-1.561-0.007-2.245 0.006-0.69 0.013-1.145 0.032-1.364 0.057v0l0.283-1.545c0.609-0.055 1.1-0.261 1.473-0.619 0.38-0.358 0.749-0.983 1.107-1.874v0l6.571-16.667 2.076-0.531 0.257 0.003c0.124 0.521 0.446 1.734 0.964 3.639 0.512 1.912 1.14 4.171 1.883 6.776 0.75 2.605 1.472 5.005 2.165 7.2v0c0.258 0.809 0.603 1.38 1.037 1.713 0.434 0.333 1.128 0.549 2.084 0.648v0l0.071 0.135-0.251 1.34c-0.26-0.003-0.734-0.025-1.424-0.067-0.69-0.042-1.373-0.066-2.05-0.074v0c-1.045-0.012-2.054 0.022-3.025 0.1-0.978 0.078-1.597 0.136-1.857 0.174zM139.983 13.718l2.891 0.032c0.786 0.009 1.801-0.035 3.046-0.131v0l-2.499-8.607-0.225-0.003z" fill="#ffffff" data-fill-palette-color="primary"></path><path d="M157.757 11.994c0.184-1.168-0.126-1.815-0.929-1.941v0c-0.149-0.023-0.313-0.032-0.494-0.026-0.174 0.007-0.286 0.017-0.337 0.029v0l0.32-1.174c0.864 0.005 1.8-0.031 2.809-0.107 1.007-0.07 1.665-0.115 1.972-0.135v0l0.142 0.416c-0.304 0.526-0.701 1.768-1.189 3.725-0.489 1.964-0.882 3.884-1.178 5.76v0c-0.333 2.113 0.365 3.305 2.093 3.578v0c0.648 0.102 1.277 0.039 1.887-0.19 0.609-0.222 1.383-0.567 2.322-1.035v0l1.184-7.513c0.102-0.648 0.055-1.119-0.141-1.413-0.196-0.294-0.598-0.488-1.205-0.584v0l-0.784-0.092 0.315-1.144c0.973 0.015 1.992-0.001 3.058-0.047 1.074-0.052 1.764-0.089 2.072-0.11v0l0.142 0.417c-0.274 0.469-0.656 1.792-1.145 3.97-0.489 2.178-0.937 4.56-1.344 7.146v0c-0.076 0.479-0.015 0.866 0.181 1.159 0.203 0.295 0.506 0.474 0.911 0.538v0c0.304 0.048 0.61 0.037 0.918-0.032 0.309-0.076 0.565-0.163 0.768-0.263 0.209-0.098 0.337-0.165 0.384-0.198v0l0.374 0.588c-0.108 0.114-0.35 0.353-0.725 0.716-0.381 0.355-0.812 0.695-1.292 1.021-0.479 0.319-0.881 0.453-1.204 0.401v0c-1.748-0.276-2.572-1.301-2.473-3.077v0l-0.152-0.086c-1.158 0.634-2.192 1.135-3.101 1.503-0.908 0.362-1.514 0.519-1.818 0.471v0c-1.384-0.218-2.396-0.71-3.036-1.474-0.641-0.758-0.867-1.742-0.676-2.95v0z" fill="#ffffff" data-fill-palette-color="primary"></path><path d="M177.844 28.065c-1.425-0.41-2.346-0.989-2.765-1.735-0.426-0.742-0.44-1.805-0.041-3.19v0l2.233-7.752c0.163-0.565 0.152-0.998-0.031-1.3-0.19-0.304-0.627-0.565-1.311-0.783v0l-0.071-0.233 0.43-0.901c0.694-0.113 1.392-0.303 2.095-0.57 0.701-0.26 1.282-0.502 1.744-0.724 0.454-0.218 0.748-0.364 0.884-0.439v0l0.56 0.428c-0.05 0.099-0.152 0.344-0.307 0.733-0.161 0.387-0.368 0.907-0.62 1.56v0l4.657 1.235 0.061 0.124-0.765 1.582-4.535-1.402c-0.808 2.263-1.636 4.866-2.484 7.808v0c-0.308 1.07-0.342 1.878-0.101 2.424 0.234 0.544 0.805 0.946 1.711 1.208v0c0.315 0.091 0.643 0.139 0.983 0.144 0.34 0.005 0.628-0.008 0.864-0.039 0.237-0.031 0.388-0.052 0.455-0.061v0l0.077 0.918c-0.155 0.069-0.478 0.19-0.968 0.361-0.499 0.176-1.025 0.338-1.579 0.484-0.548 0.148-0.94 0.188-1.176 0.12z" fill="#ffffff" data-fill-palette-color="primary"></path><path d="M189.596 32.462c-1.147-0.48-2.048-1.186-2.703-2.119-0.645-0.937-1.005-2.016-1.078-3.24-0.067-1.221 0.173-2.487 0.722-3.798v0c0.591-1.412 1.441-2.579 2.552-3.499 1.105-0.923 2.331-1.499 3.678-1.728 1.354-0.226 2.686-0.065 3.998 0.483v0c1.128 0.472 2.023 1.176 2.684 2.111 0.658 0.942 1.02 2.023 1.087 3.244 0.071 1.23-0.168 2.5-0.716 3.811v0c-0.588 1.406-1.437 2.569-2.548 3.49-1.105 0.923-2.334 1.498-3.688 1.724-1.348 0.229-2.677 0.069-3.988-0.479zM191.064 31.343c1.128 0.472 2.216 0.386 3.263-0.258 1.051-0.635 1.904-1.737 2.561-3.306v0c0.498-1.192 0.761-2.333 0.788-3.426 0.025-1.086-0.178-2.026-0.609-2.821-0.437-0.797-1.068-1.369-1.894-1.715v0c-1.128-0.472-2.221-0.384-3.276 0.263-1.05 0.65-1.907 1.769-2.571 3.358v0c-0.498 1.192-0.762 2.326-0.79 3.403-0.022 1.08 0.182 2.009 0.611 2.789 0.427 0.786 1.066 1.357 1.917 1.713z" fill="#ffffff" data-fill-palette-color="primary"></path><path d="M207.663 40.872c0.642 0.216 1.174 0.258 1.596 0.125 0.424-0.123 0.791-0.422 1.101-0.896v0l3.665-5.356c0.599-0.915 0.862-1.747 0.789-2.497-0.069-0.756-0.469-1.373-1.201-1.852v0c-0.583-0.382-1.277-0.619-2.082-0.713-0.799-0.09-1.541-0.11-2.226-0.061v0c-2.639 3.671-4.193 5.864-4.661 6.579v0c-0.37 0.566-0.556 1.012-0.557 1.338-0.007 0.322 0.173 0.603 0.538 0.842v0c0.206 0.135 0.406 0.253 0.601 0.356 0.192 0.093 0.326 0.164 0.399 0.213v0l-0.013 0.151-1.023 1.021c-0.151-0.131-0.458-0.361-0.921-0.689-0.463-0.328-0.969-0.671-1.519-1.031v0c-0.6-0.393-1.163-0.749-1.689-1.069-0.52-0.316-0.872-0.534-1.055-0.653v0l0.899-1.017c0.56 0.293 1.018 0.397 1.376 0.312 0.354-0.079 0.697-0.373 1.03-0.881v0l4.378-6.69c0.408-0.623 0.592-1.123 0.553-1.5-0.039-0.377-0.308-0.728-0.805-1.054v0l-0.3-0.196-0.004-0.162 0.672-0.859c0.871 0.391 1.752 0.755 2.642 1.092 0.888 0.328 1.46 0.539 1.717 0.634v0l0.022 0.321c-0.115 0.088-0.323 0.287-0.623 0.597-0.306 0.306-0.593 0.645-0.861 1.016v0l-0.005 0.12c2.956-0.05 4.755 0.135 5.395 0.554v0c0.875 0.573 1.494 1.243 1.857 2.011 0.353 0.77 0.432 1.586 0.236 2.446v0c0.968-0.044 2.021-0.037 3.159 0.022 1.141 0.053 1.941 0.229 2.399 0.528v0c1.149 0.752 1.852 1.669 2.107 2.751 0.261 1.086 0.04 2.166-0.664 3.241v0c-0.12 0.183-0.727 0.986-1.821 2.409v0c-1.389 1.81-2.329 3.09-2.819 3.84v0c-0.37 0.566-0.559 1.01-0.566 1.332-0.001 0.326 0.181 0.609 0.547 0.848v0c0.2 0.131 0.397 0.248 0.592 0.351 0.198 0.097 0.334 0.17 0.408 0.218v0l-0.021 0.145-1.024 1.021c-0.145-0.128-0.449-0.355-0.913-0.683-0.469-0.331-0.975-0.675-1.518-1.031v0c-0.48-0.314-1.021-0.636-1.623-0.964-0.607-0.332-1.008-0.55-1.202-0.652v0l0.872-1.034c0.592 0.257 1.073 0.339 1.444 0.247 0.374-0.098 0.728-0.401 1.061-0.911v0l3.665-5.356c0.599-0.915 0.865-1.745 0.797-2.491-0.069-0.756-0.469-1.373-1.201-1.852v0c-0.949-0.621-2.355-0.888-4.217-0.8v0l-4.752 6.605c-0.344 0.526-0.524 0.964-0.54 1.312-0.018 0.339 0.147 0.623 0.496 0.851v0c0.2 0.131 0.397 0.248 0.592 0.351 0.198 0.097 0.334 0.17 0.408 0.218v0l-0.022 0.145-0.989 1.044c-0.151-0.131-0.449-0.355-0.895-0.672-0.446-0.317-0.944-0.654-1.493-1.014v0c-0.475-0.311-1.048-0.62-1.719-0.929-0.672-0.309-1.11-0.506-1.316-0.592v0z" fill="#ffffff" data-fill-palette-color="primary"></path><path d="M229.769 59.994c-1.281-1.222-1.372-2.532-0.274-3.93v0l-0.075-0.115c-1.111 0.026-2.059-0.019-2.845-0.136-0.786-0.107-1.297-0.274-1.534-0.5v0c-0.885-0.844-1.348-1.815-1.388-2.911-0.04-1.096 0.348-2.072 1.164-2.927v0c0.434-0.455 0.932-0.749 1.494-0.884 0.563-0.124 1.084-0.062 1.563 0.188v0l5.691 3.064 1.013-1.017c0.755-0.791 1.161-1.584 1.22-2.378 0.059-0.784-0.243-1.493-0.906-2.125v0c-0.445-0.425-1.009-0.769-1.691-1.033-0.688-0.259-1.45-0.425-2.289-0.497v0l-0.047-0.188 0.687-1.285c1.152 0.277 2.264 0.607 3.337 0.988 1.077 0.376 1.781 0.722 2.112 1.038v0c1.028 0.981 1.577 2.02 1.647 3.115 0.074 1.091-0.349 2.118-1.269 3.082v0c-0.335 0.351-1.069 1.011-2.201 1.98v0c-1.838 1.571-2.982 2.591-3.43 3.06v0c-0.335 0.351-0.503 0.705-0.504 1.064-0.006 0.353 0.141 0.673 0.443 0.961v0c0.252 0.241 0.568 0.429 0.948 0.565 0.38 0.136 0.723 0.203 1.027 0.2v0l-0.027 0.697c-0.615 0.169-1.284 0.262-2.009 0.279-0.725 0.017-1.344-0.101-1.857-0.355zM226.984 54.078c0.302 0.288 0.757 0.519 1.365 0.693 0.603 0.169 1.229 0.247 1.876 0.231v0l2.425-2.304-4.146-2.099c-0.597-0.295-1.143-0.183-1.638 0.335v0c-0.439 0.46-0.649 0.987-0.629 1.581 0.028 0.594 0.278 1.115 0.747 1.563z" fill="#ffffff" data-fill-palette-color="primary"></path><path d="M236.861 68.09c-0.946-1.142-1.382-2.139-1.307-2.991 0.065-0.853 0.653-1.739 1.763-2.659v0l6.212-5.147c0.453-0.375 0.688-0.739 0.706-1.092 0.014-0.358-0.2-0.82-0.642-1.385v0l0.073-0.233 0.863-0.502c0.637 0.297 1.321 0.534 2.051 0.709 0.726 0.18 1.342 0.308 1.85 0.385 0.498 0.076 0.823 0.121 0.977 0.135v0l0.222 0.668c-0.097 0.054-0.319 0.198-0.667 0.433-0.351 0.229-0.815 0.542-1.391 0.94v0l3.153 3.644-0.02 0.136-1.524 0.877-2.957-3.713c-1.943 1.415-4.093 3.099-6.45 5.052v0c-0.858 0.711-1.341 1.359-1.449 1.946-0.113 0.582 0.132 1.235 0.734 1.962v0c0.209 0.253 0.453 0.477 0.73 0.672 0.278 0.196 0.523 0.347 0.737 0.455 0.213 0.107 0.35 0.176 0.41 0.206v0l-0.454 0.802c-0.167-0.03-0.501-0.112-1.003-0.247-0.511-0.135-1.037-0.299-1.578-0.49-0.536-0.186-0.882-0.374-1.039-0.563z" fill="#ffffff" data-fill-palette-color="primary"></path><path d="M240.938 73.403l1.175-0.662c0.514 0.442 0.993 0.685 1.436 0.726 0.435 0.04 0.885-0.101 1.352-0.424v0l6.847-4.733c0.972-0.672 1.229-1.34 0.77-2.004v0c-0.086-0.124-0.193-0.249-0.322-0.375-0.125-0.121-0.21-0.195-0.254-0.223v0l1.071-0.579c0.633 0.675 1.313 1.352 2.039 2.03 0.736 0.679 1.211 1.115 1.427 1.307v0l-0.228 0.356c-0.489 0.097-1.743 0.753-3.762 1.966-2.019 1.213-4.088 2.552-6.207 4.017v0c-0.517 0.358-0.851 0.692-1.001 1.004-0.141 0.313-0.092 0.641 0.144 0.984v0c0.136 0.197 0.275 0.379 0.416 0.548 0.147 0.164 0.244 0.28 0.29 0.347v0l-0.068 0.135-1.315 0.585c-0.086-0.173-0.277-0.49-0.571-0.951-0.294-0.461-0.628-0.962-1.001-1.502v0c-0.323-0.467-0.737-0.969-1.242-1.508-0.506-0.539-0.838-0.887-0.996-1.044zM258.579 64.708c-0.288-0.416-0.376-0.832-0.266-1.249 0.107-0.423 0.348-0.764 0.725-1.025v0c0.433-0.299 0.913-0.403 1.442-0.311 0.525 0.086 0.942 0.354 1.253 0.803v0c0.284 0.41 0.372 0.827 0.266 1.25-0.11 0.417-0.354 0.756-0.731 1.016v0c-0.433 0.299-0.912 0.406-1.436 0.32-0.525-0.086-0.942-0.354-1.253-0.804z" fill="#ffffff" data-fill-palette-color="primary"></path><path d="M249.354 87.338c-0.586-1.097-0.837-2.214-0.755-3.351 0.092-1.134 0.496-2.198 1.212-3.192 0.719-0.988 1.706-1.817 2.96-2.486v0c1.35-0.721 2.747-1.087 4.19-1.098 1.439-0.017 2.754 0.312 3.942 0.986 1.192 0.68 2.123 1.648 2.793 2.901v0c0.576 1.079 0.824 2.19 0.745 3.332-0.086 1.146-0.488 2.213-1.208 3.201-0.722 0.998-1.71 1.831-2.964 2.501v0c-1.344 0.718-2.738 1.082-4.18 1.093-1.439 0.017-2.755-0.315-3.948-0.995-1.189-0.674-2.118-1.639-2.787-2.892zM251.199 87.398c0.576 1.079 1.473 1.7 2.691 1.864 1.215 0.172 2.573-0.142 4.074-0.944v0c1.139-0.608 2.065-1.327 2.776-2.156 0.706-0.826 1.143-1.683 1.312-2.571 0.166-0.894 0.038-1.736-0.384-2.526v0c-0.576-1.079-1.478-1.702-2.705-1.867-1.224-0.16-2.596 0.166-4.115 0.977v0c-1.139 0.608-2.06 1.321-2.763 2.137-0.699 0.823-1.129 1.672-1.289 2.548-0.166 0.879-0.032 1.725 0.403 2.538z" fill="#ffffff" data-fill-palette-color="primary"></path><path d="M258.49 105.434c0.381 0.561 0.781 0.919 1.199 1.074 0.409 0.152 0.881 0.132 1.415-0.058v0l6.157-2.052c1.03-0.367 1.743-0.871 2.138-1.513 0.402-0.644 0.457-1.374 0.165-2.192v0c-0.236-0.663-0.645-1.272-1.227-1.826-0.584-0.561-1.163-1.025-1.737-1.394v0c-4.321 1.33-6.884 2.138-7.689 2.425v0c-0.637 0.227-1.056 0.467-1.256 0.719-0.198 0.259-0.223 0.595-0.077 1.007v0c0.08 0.225 0.167 0.437 0.26 0.636 0.099 0.197 0.164 0.337 0.193 0.421v0l-0.105 0.103-1.432 0.195c-0.038-0.189-0.144-0.558-0.318-1.106-0.171-0.541-0.367-1.121-0.587-1.739v0c-0.19-0.534-0.426-1.114-0.707-1.739-0.283-0.632-0.471-1.047-0.564-1.246v0l1.32-0.297c0.316 0.562 0.65 0.918 1.002 1.069 0.358 0.148 0.823 0.12 1.395-0.084v0l7.531-2.683c0.702-0.25 1.151-0.537 1.348-0.861 0.197-0.324 0.196-0.763-0.002-1.317v0l-0.12-0.338 0.091-0.141 1.058-0.268c0.456 0.831 0.936 1.65 1.442 2.457 0.512 0.804 0.84 1.318 0.984 1.542v0l-0.176 0.27c-0.142 0.007-0.428 0.04-0.857 0.099-0.429 0.059-0.862 0.155-1.3 0.289v0l-0.073 0.102c2.399 1.786 3.719 3.016 3.96 3.692v0c0.463 1.3 0.47 2.459 0.02 3.475-0.45 1.016-1.28 1.74-2.491 2.172v0c-0.206 0.073-1.174 0.349-2.904 0.828v0c-2.203 0.597-3.726 1.045-4.569 1.346v0c-0.592 0.211-1 0.451-1.224 0.719-0.217 0.266-0.257 0.592-0.119 0.978v0c0.083 0.232 0.169 0.444 0.259 0.637 0.099 0.197 0.164 0.337 0.194 0.42v0l-0.102 0.113-1.422 0.223c-0.041-0.196-0.143-0.555-0.307-1.076-0.164-0.522-0.355-1.089-0.573-1.7v0c-0.193-0.541-0.463-1.137-0.812-1.789-0.348-0.652-0.579-1.074-0.691-1.267v0z" fill="#ffffff" data-fill-palette-color="primary"></path><path d="M10.645 144.571c0-1.538 1.247-2.786 2.785-2.785 1.538 0 2.786 1.247 2.786 2.785 0 1.538-1.247 2.786-2.786 2.786-1.538 0-2.786-1.247-2.785-2.786z" fill="#ffffff" data-fill-palette-color="primary"></path><path d="M268.699 144.571c0-1.538 1.247-2.786 2.785-2.785 1.538 0 2.786 1.247 2.786 2.785 0 1.538-1.247 2.786-2.786 2.786-1.538 0-2.786-1.247-2.785-2.786z" fill="#ffffff" data-fill-palette-color="primary"></path></g><g id="text-1"><path d="M13.632 180.578l0.882-0.125c0.259 0.507 0.506 0.819 0.74 0.934 0.241 0.113 0.623 0.092 1.147-0.066v0l7.675-2.278c0.386-0.116 0.634-0.24 0.744-0.373 0.103-0.131 0.115-0.331 0.034-0.599v0c-0.037-0.124-0.08-0.244-0.128-0.357-0.044-0.122-0.073-0.207-0.086-0.252v0l0.057-0.06 0.843-0.114c0.03 0.148 0.099 0.427 0.208 0.837 0.107 0.403 0.221 0.808 0.342 1.213v0c0.112 0.373 0.25 0.799 0.415 1.278 0.163 0.472 0.28 0.804 0.352 0.997v0c0.379 1.263 0.386 2.313 0.024 3.149-0.354 0.841-1.055 1.418-2.103 1.732v0c-0.681 0.204-1.389 0.199-2.124-0.016-0.733-0.208-1.386-0.58-1.96-1.114-0.565-0.53-0.954-1.148-1.166-1.855v0l-0.459-1.532-1.808 0.499c-0.583 0.175-0.992 0.319-1.23 0.433-0.239 0.107-0.382 0.225-0.429 0.353-0.047 0.128-0.033 0.32 0.044 0.575v0c0.061 0.203 0.126 0.397 0.196 0.584 0.07 0.186 0.119 0.314 0.147 0.384v0l-0.057 0.059-0.894 0.086c-0.022-0.122-0.076-0.348-0.161-0.679-0.083-0.325-0.177-0.664-0.283-1.017v0c-0.145-0.484-0.335-1.048-0.571-1.691-0.227-0.638-0.357-0.967-0.391-0.985zM20.453 183.703c0.344 0.696 0.808 1.16 1.391 1.391 0.588 0.223 1.294 0.212 2.119-0.035v0c0.943-0.282 1.548-0.763 1.814-1.443 0.265-0.686 0.221-1.618-0.131-2.796v0c-0.067-0.223-0.12-0.353-0.16-0.391-0.04-0.038-0.121-0.046-0.243-0.024v0c-1.585 0.354-3.283 0.78-5.095 1.281v0z" fill="#ffffff" data-fill-palette-color="primary"></path><path d="M17.346 192.206l0.865-0.212c0.252 0.429 0.517 0.687 0.795 0.775 0.272 0.09 0.661 0.034 1.168-0.169v0l7.443-2.949c0.374-0.149 0.611-0.295 0.708-0.438 0.091-0.14 0.085-0.339-0.018-0.599v0c-0.048-0.121-0.101-0.235-0.16-0.345-0.054-0.118-0.091-0.199-0.108-0.244v0l0.051-0.064 0.83-0.188c0.043 0.145 0.137 0.416 0.281 0.815 0.142 0.392 0.293 0.788 0.452 1.188v0c0.129 0.324 0.297 0.68 0.504 1.068 0.2 0.391 0.338 0.645 0.415 0.762v0l-0.827 0.252c-0.202-0.376-0.385-0.615-0.551-0.718-0.166-0.103-0.325-0.142-0.478-0.118-0.15 0.03-0.511 0.138-1.085 0.323v0c-1.031 0.331-2.194 0.733-3.492 1.206-1.301 0.483-2.44 0.919-3.417 1.31v0c-0.425 0.17-0.716 0.326-0.872 0.469-0.156 0.143-0.224 0.325-0.202 0.544 0.019 0.213 0.123 0.558 0.313 1.034v0c0.286 0.717 0.554 1.221 0.802 1.512 0.255 0.288 0.588 0.45 0.999 0.484 0.411 0.035 1.022-0.029 1.833-0.191v0l0.398 0.746-0.063 0.092c-0.206 0.038-0.66 0.135-1.363 0.29-0.706 0.149-1.443 0.33-2.212 0.541v0l-0.139-0.044c-0.111-0.353-0.362-1.073-0.753-2.161-0.381-1.084-0.71-1.972-0.986-2.663v0c-0.223-0.558-0.447-1.054-0.671-1.487-0.233-0.437-0.387-0.71-0.46-0.821z" fill="#ffffff" data-fill-palette-color="primary"></path><path d="M24.078 207.215c-0.518-1.017-0.762-2.02-0.729-3.01 0.041-0.987 0.349-1.888 0.923-2.703 0.574-0.814 1.394-1.493 2.459-2.036v0c1.132-0.577 2.285-0.843 3.46-0.798 1.168 0.049 2.239 0.389 3.212 1.02 0.977 0.637 1.754 1.522 2.331 2.655v0c0.214 0.42 0.4 0.866 0.556 1.339 0.159 0.463 0.285 0.86 0.376 1.189 0.094 0.335 0.149 0.549 0.166 0.64v0l-0.068 0.115c-0.079 0.01-0.262 0.057-0.549 0.142-0.287 0.085-0.657 0.201-1.111 0.348-0.445 0.15-0.91 0.33-1.394 0.538v0l-0.483-0.789c0.061-0.016 0.171-0.056 0.329-0.122 0.158-0.065 0.335-0.148 0.53-0.247v0c1.053-0.537 1.156-1.636 0.308-3.299v0c-0.382-0.749-0.9-1.313-1.553-1.693-0.648-0.383-1.381-0.558-2.2-0.523-0.819 0.034-1.676 0.279-2.571 0.735v0c-0.98 0.5-1.762 1.102-2.346 1.806-0.584 0.704-0.934 1.454-1.051 2.25-0.107 0.798 0.035 1.581 0.427 2.348v0c0.394 0.773 0.927 1.284 1.598 1.533 0.677 0.245 1.527 0.242 2.548-0.011v0l0.493 0.785c-0.189 0.05-0.604 0.17-1.245 0.358-0.643 0.182-1.23 0.378-1.76 0.587v0l-0.206-0.022c-0.012 0.006-0.163-0.132-0.453-0.413-0.299-0.285-0.632-0.66-0.999-1.125-0.358-0.462-0.691-0.994-0.998-1.597z" fill="#ffffff" data-fill-palette-color="primary"></path><path d="M25.847 216.157l0.064-0.447 0.167-0.101c0.487 0.224 0.985 0.346 1.492 0.365 0.502 0.023 0.922-0.068 1.261-0.273v0c0.216-0.131 0.393-0.307 0.532-0.526 0.148-0.218 0.244-0.448 0.288-0.691v0l0.25-0.103c0.504 0.198 0.835 0.428 0.994 0.691v0c0.145 0.24 0.155 0.506 0.029 0.798-0.126 0.292-0.391 0.561-0.794 0.806v0c-0.567 0.344-1.24 0.44-2.019 0.289-0.785-0.147-1.54-0.417-2.264-0.808z" fill="#ffffff" data-fill-palette-color="primary"></path><path d="M37.906 228.378l0.073-0.123 0.632-0.406c0.439 0.48 0.773 0.783 1.002 0.907 0.233 0.13 0.44 0.123 0.623-0.021v0c0.199-0.156 0.402-0.39 0.609-0.701v0l1.233-1.78c-0.175-0.245-0.578-0.767-1.207-1.567v0c-0.376-0.478-0.846-0.991-1.409-1.54v0l-1.985 0.676c-0.34 0.12-0.57 0.227-0.688 0.32v0c-0.22 0.173-0.324 0.368-0.31 0.583 0.013 0.216 0.145 0.482 0.394 0.799v0l0.672 0.854-0.031 0.076-0.714 0.419c-0.082-0.127-0.279-0.415-0.59-0.866-0.306-0.455-0.62-0.886-0.941-1.294v0c-0.292-0.37-0.568-0.71-0.828-1.018-0.256-0.303-0.429-0.501-0.52-0.595v0l0.803-0.437c0.247 0.258 0.521 0.407 0.823 0.448 0.297 0.035 0.714-0.027 1.249-0.187v0l9.952-3.101 1 0.739 0.089 0.113c-0.191 0.255-0.626 0.845-1.306 1.772-0.675 0.932-1.467 2.042-2.374 3.33-0.908 1.289-1.732 2.49-2.473 3.604v0c-0.277 0.41-0.411 0.776-0.4 1.098 0.011 0.313 0.169 0.706 0.472 1.181v0l-0.037 0.068-0.703 0.384c-0.093-0.118-0.256-0.342-0.489-0.672-0.229-0.324-0.466-0.642-0.711-0.953v0c-0.376-0.478-0.759-0.925-1.147-1.341-0.39-0.406-0.644-0.663-0.763-0.769zM40.419 222.837l1.04 1.321c0.279 0.354 0.667 0.797 1.163 1.328v0l2.996-4.264-0.082-0.104z" fill="#ffffff" data-fill-palette-color="primary"></path><path d="M43.693 235.434c-0.227-0.255-0.325-0.52-0.294-0.794 0.036-0.279 0.169-0.52 0.399-0.724v0c0.245-0.218 0.522-0.323 0.831-0.314 0.319 0.009 0.596 0.146 0.833 0.412v0c0.227 0.255 0.325 0.525 0.293 0.808-0.026 0.279-0.154 0.521-0.384 0.726v0c-0.245 0.218-0.527 0.322-0.846 0.313-0.318-0.019-0.596-0.161-0.832-0.427z" fill="#ffffff" data-fill-palette-color="primary"></path><path d="M51.532 243.204c-0.828-0.785-1.392-1.65-1.693-2.594-0.291-0.945-0.302-1.896-0.032-2.856 0.269-0.959 0.815-1.873 1.638-2.74v0c0.875-0.922 1.873-1.558 2.995-1.907 1.117-0.344 2.24-0.381 3.368-0.111 1.134 0.274 2.161 0.849 3.084 1.723v0c0.342 0.324 0.666 0.683 0.971 1.076 0.305 0.383 0.556 0.715 0.752 0.995 0.201 0.285 0.324 0.468 0.369 0.549v0l-0.025 0.131c-0.072 0.036-0.228 0.141-0.47 0.317-0.242 0.176-0.552 0.409-0.931 0.699-0.369 0.29-0.747 0.614-1.135 0.973v0l-0.718-0.583c0.052-0.035 0.142-0.11 0.269-0.225 0.127-0.115 0.266-0.251 0.417-0.409v0c0.813-0.858 0.543-1.929-0.81-3.213v0c-0.61-0.578-1.287-0.937-2.03-1.077-0.739-0.145-1.488-0.064-2.249 0.241-0.76 0.305-1.486 0.823-2.177 1.552v0c-0.757 0.798-1.293 1.627-1.609 2.486-0.316 0.859-0.395 1.683-0.239 2.471 0.166 0.788 0.561 1.479 1.186 2.072v0c0.63 0.597 1.302 0.901 2.018 0.91 0.72 0.005 1.52-0.282 2.399-0.861v0l0.726 0.575c-0.161 0.111-0.512 0.362-1.053 0.753-0.546 0.387-1.033 0.767-1.463 1.141v0l-0.202 0.049c-0.009 0.01-0.198-0.07-0.565-0.239-0.377-0.169-0.816-0.411-1.317-0.726-0.492-0.316-0.983-0.706-1.474-1.172z" fill="#ffffff" data-fill-palette-color="primary"></path><path d="M65.828 254.72c-0.145-0.127-0.449-0.395-0.912-0.805-0.468-0.404-0.866-0.722-1.196-0.955v0c-0.324-0.228-0.694-0.451-1.11-0.667-0.419-0.211-0.691-0.348-0.814-0.41v0l0.593-0.648c0.542 0.239 0.96 0.328 1.253 0.267 0.297-0.066 0.599-0.318 0.907-0.753v0l4.623-6.536c0.232-0.33 0.35-0.581 0.354-0.753 0-0.167-0.114-0.331-0.343-0.492v0c-0.106-0.075-0.214-0.142-0.322-0.201-0.11-0.069-0.185-0.117-0.224-0.145v0l0.008-0.083 0.593-0.61c0.11 0.094 0.32 0.258 0.63 0.493 0.316 0.239 0.639 0.475 0.969 0.707v0c0.447 0.315 0.917 0.633 1.409 0.954 0.487 0.317 0.824 0.534 1.011 0.648v0c0.995 0.7 1.746 1.521 2.253 2.462 0.502 0.938 0.72 1.91 0.655 2.918-0.063 1.016-0.416 1.98-1.057 2.891v0c-0.716 1.017-1.611 1.779-2.685 2.284-1.069 0.51-2.185 0.719-3.349 0.627-1.164-0.092-2.246-0.49-3.246-1.193zM71.647 244.739c-0.218-0.153-0.381-0.23-0.489-0.231-0.104-0.006-0.209 0.054-0.315 0.179v0c-2.972 3.892-4.654 6.117-5.047 6.676v0c-0.279 0.397-0.434 0.73-0.466 1.001-0.03 0.28 0.063 0.558 0.278 0.834 0.219 0.271 0.599 0.597 1.141 0.979v0c1.123 0.79 2.278 1.026 3.463 0.707 1.189-0.325 2.258-1.16 3.205-2.508v0c0.967-1.375 1.3-2.72 0.998-4.036-0.308-1.32-1.231-2.52-2.768-3.601z" fill="#ffffff" data-fill-palette-color="primary"></path><path d="M81.863 264.561c-0.281-0.155-0.501-0.464-0.66-0.926-0.162-0.456-0.239-1.002-0.231-1.639v0l0.003-4.225-1.382-0.763-1.426 2.456c-0.235 0.425-0.376 0.745-0.425 0.96-0.039 0.212 0.001 0.395 0.12 0.546 0.123 0.146 0.372 0.323 0.749 0.531v0l0.001 0.083-0.539 0.615c-0.128-0.079-0.39-0.235-0.784-0.468-0.394-0.233-0.81-0.47-1.246-0.711v0c-0.389-0.215-0.736-0.399-1.042-0.552-0.306-0.153-0.511-0.255-0.616-0.305v0l0.564-0.661c0.379 0.147 0.68 0.231 0.903 0.253 0.222 0.021 0.413-0.034 0.571-0.165 0.162-0.137 0.335-0.373 0.519-0.708v0l3.888-6.998c0.195-0.353 0.285-0.615 0.271-0.788-0.018-0.166-0.149-0.317-0.395-0.452v0c-0.114-0.063-0.228-0.118-0.342-0.165-0.117-0.057-0.196-0.097-0.238-0.12v0l-0.001-0.082 0.523-0.672c0.125 0.085 0.37 0.235 0.734 0.452 0.358 0.213 0.723 0.423 1.093 0.628v0c0.377 0.208 0.777 0.417 1.2 0.627 0.429 0.213 0.724 0.357 0.886 0.43v0c1.035 0.571 1.723 1.256 2.063 2.053 0.343 0.806 0.292 1.613-0.154 2.421v0c-0.37 0.67-0.924 1.164-1.661 1.482-0.732 0.322-1.584 0.445-2.557 0.369v0l0.225 3.918c0.029 0.711 0.14 1.252 0.333 1.624 0.189 0.378 0.509 0.691 0.957 0.938v0l0.028 0.097-0.411 0.511zM81.764 257.212c-0.02 0.036 0.187 0.057 0.621 0.062 0.428 0.002 0.878-0.105 1.348-0.321 0.474-0.222 0.87-0.621 1.187-1.195v0c0.813-1.472 0.199-2.771-1.841-3.897v0c-0.108-0.059-0.197-0.074-0.269-0.043-0.062 0.028-0.142 0.117-0.24 0.265v0c-1.04 1.643-1.851 2.978-2.435 4.007v0z" fill="#ffffff" data-fill-palette-color="primary"></path><path d="M85.964 266.481l0.463-0.747c0.596 0.143 1.032 0.157 1.309 0.043 0.286-0.118 0.539-0.419 0.76-0.905v0l3.329-7.28c0.167-0.367 0.236-0.636 0.208-0.806-0.031-0.164-0.173-0.304-0.428-0.42v0l-0.741-0.302-0.008-0.083 0.469-0.71c0.187 0.085 0.33 0.157 0.43 0.218v0l1.617 0.779c0.516 0.235 1.203 0.483 2.06 0.744v0l-0.422 0.755c-0.498-0.159-0.861-0.211-1.088-0.157-0.23 0.061-0.434 0.253-0.612 0.578v0c-0.682 1.319-1.382 2.705-2.101 4.156-0.713 1.455-1.228 2.531-1.545 3.228v0c-0.215 0.473-0.305 0.811-0.269 1.015 0.029 0.201 0.196 0.37 0.5 0.508v0c0.193 0.088 0.505 0.211 0.936 0.369v0l0.008 0.083-0.523 0.73c-0.162-0.073-0.286-0.138-0.375-0.192v0c-0.798-0.392-1.42-0.69-1.868-0.894v0c-0.566-0.257-1.269-0.494-2.109-0.71z" fill="#ffffff" data-fill-palette-color="primary"></path><path d="M97.399 271.171c0.029-0.663 0.084-2.124 0.165-4.384 0.088-2.257 0.154-4.475 0.2-6.652v0c0.012-0.387-0.086-0.707-0.294-0.961-0.206-0.26-0.54-0.475-1.002-0.644v0l-0.012-0.091 0.397-0.73c0.155 0.054 0.442 0.165 0.861 0.334 0.419 0.168 0.822 0.32 1.209 0.456v0c0.393 0.138 0.903 0.284 1.53 0.437 0.624 0.161 1.038 0.262 1.24 0.304v0l0.004 0.143-0.315 0.682c-0.661-0.181-1.115-0.26-1.361-0.237-0.247 0.022-0.416 0.166-0.509 0.43v0c-0.084 0.239-0.2 1.595-0.349 4.07-0.147 2.468-0.244 4.153-0.292 5.056v0l0.155 0.054c3.79-4.437 5.751-6.846 5.884-7.226v0c0.09-0.258 0.058-0.476-0.097-0.653-0.146-0.182-0.442-0.35-0.887-0.506v0l-0.939-0.329-0.015-0.081 0.387-0.733c0.15 0.067 0.484 0.209 1.002 0.426 0.522 0.226 1.028 0.425 1.518 0.597v0c0.445 0.156 0.86 0.294 1.245 0.414 0.379 0.118 0.631 0.192 0.759 0.222v0l-0.443 0.8c-0.376-0.124-0.655-0.157-0.835-0.096-0.18 0.06-0.399 0.24-0.657 0.541v0l-7.259 8.363z" fill="#ffffff" data-fill-palette-color="primary"></path><path d="M115.941 272.83l0.035 0.115c-0.463 0.94-0.89 1.932-1.282 2.975v0l-0.117 0.086c-2.569-0.741-4.426-1.257-5.572-1.547v0c-0.908-0.23-1.778-0.383-2.611-0.459v0l0.325-0.827c0.575 0.068 0.989 0.018 1.244-0.151 0.259-0.16 0.456-0.505 0.589-1.035v0l1.983-7.756c0.099-0.391 0.12-0.668 0.062-0.83-0.059-0.156-0.225-0.268-0.496-0.337v0l-0.634-0.129-0.022-0.079 0.336-0.782c1.249 0.358 2.102 0.595 2.558 0.71v0c1.464 0.37 2.604 0.641 3.421 0.813 0.823 0.173 1.547 0.293 2.172 0.359v0l0.03 0.134c-0.47 0.91-0.87 1.894-1.202 2.953v0l-0.904-0.145 0.24-0.784c0.109-0.431 0.128-0.743 0.058-0.938-0.069-0.201-0.282-0.375-0.64-0.521-0.351-0.145-0.99-0.335-1.918-0.57v0c-0.431-0.109-0.728-0.174-0.892-0.193-0.166-0.014-0.287 0.019-0.363 0.098-0.07 0.081-0.142 0.242-0.218 0.484v0l-1.056 3.55 1.903 0.502c0.477 0.121 1.243 0.24 2.298 0.36v0l0.055 0.119-0.533 1.018c-1.363-0.38-2.22-0.614-2.571-0.703v0c-0.411-0.104-0.899-0.181-1.463-0.233v0l-0.962 3.51c-0.09 0.358-0.124 0.614-0.099 0.768 0.031 0.156 0.133 0.284 0.304 0.384 0.18 0.095 0.506 0.202 0.976 0.321v0c1.033 0.261 1.781 0.398 2.244 0.409 0.461 0.018 0.822-0.099 1.083-0.35 0.261-0.251 0.531-0.719 0.809-1.403v0z" fill="#ffffff" data-fill-palette-color="primary"></path><path d="M118.821 279.72l-0.293-0.343 0.033-0.192c0.49-0.219 0.909-0.513 1.259-0.882 0.348-0.362 0.557-0.738 0.625-1.128v0c0.044-0.249 0.029-0.498-0.045-0.747-0.066-0.255-0.176-0.479-0.329-0.672v0l0.086-0.255c0.481-0.248 0.873-0.346 1.176-0.293v0c0.276 0.049 0.482 0.217 0.619 0.505 0.137 0.288 0.164 0.664 0.082 1.128v0c-0.115 0.653-0.486 1.222-1.112 1.708-0.628 0.493-1.328 0.883-2.101 1.171z" fill="#ffffff" data-fill-palette-color="primary"></path><path d="M133.738 278.679c-0.532-0.036-1.016-0.116-1.453-0.241-0.437-0.125-0.795-0.252-1.074-0.381-0.279-0.135-0.417-0.21-0.416-0.223v0l-0.08-0.191c0.019-0.081 0.056-0.27 0.11-0.567 0.062-0.304 0.126-0.697 0.193-1.179 0.06-0.489 0.109-1.006 0.145-1.552v0l0.866-0.034c-0.064 0.948-0.046 1.654 0.052 2.12 0.092 0.465 0.303 0.794 0.632 0.988 0.336 0.194 0.859 0.315 1.568 0.362v0c0.798 0.054 1.448-0.091 1.95-0.433 0.509-0.336 0.785-0.827 0.829-1.475v0c0.026-0.382-0.081-0.735-0.319-1.06-0.239-0.317-0.528-0.597-0.868-0.839-0.34-0.235-0.849-0.561-1.526-0.976v0c-0.631-0.392-1.149-0.742-1.553-1.05-0.397-0.314-0.725-0.679-0.984-1.093-0.26-0.415-0.372-0.881-0.338-1.4v0c0.044-0.655 0.279-1.238 0.704-1.75 0.425-0.512 0.979-0.903 1.661-1.173 0.689-0.269 1.44-0.376 2.251-0.32v0c0.505 0.034 0.972 0.103 1.404 0.207 0.425 0.097 0.761 0.192 1.008 0.284 0.247 0.092 0.401 0.154 0.46 0.185v0l0.054 0.117c-0.019 0.074-0.061 0.249-0.128 0.525-0.073 0.276-0.158 0.661-0.252 1.154-0.094 0.487-0.18 0.988-0.256 1.504v0l-0.742 0.032-0.115-0.111c0.017-0.047 0.038-0.162 0.064-0.345 0.026-0.183 0.047-0.394 0.063-0.632v0c0.045-0.675-0.087-1.15-0.397-1.424-0.317-0.275-0.898-0.441-1.744-0.498v0c-0.695-0.047-1.28 0.088-1.753 0.406-0.473 0.317-0.728 0.735-0.763 1.253v0c-0.034 0.511 0.154 0.969 0.565 1.374 0.412 0.398 1.025 0.846 1.841 1.346v0c0.796 0.478 1.4 0.868 1.811 1.17 0.418 0.302 0.777 0.665 1.078 1.09 0.3 0.431 0.432 0.913 0.395 1.445v0c-0.048 0.709-0.288 1.333-0.722 1.872-0.44 0.532-1.025 0.934-1.756 1.207-0.73 0.266-1.552 0.368-2.465 0.306z" fill="#ffffff" data-fill-palette-color="primary"></path><path d="M151.283 275.257l0.064 0.101c-0.193 1.03-0.337 2.1-0.433 3.21v0l-0.089 0.115c-2.673-0.022-4.601-0.018-5.783 0.012v0c-0.936 0.023-1.816 0.111-2.638 0.261v0l0.09-0.884c0.572-0.09 0.958-0.25 1.157-0.48 0.206-0.224 0.303-0.609 0.289-1.156v0l-0.181-8.003c-0.01-0.403-0.065-0.675-0.164-0.817-0.099-0.134-0.289-0.198-0.568-0.19v0l-0.645 0.047-0.043-0.071 0.112-0.844c1.299 0.008 2.184 0.007 2.656-0.005v0c1.51-0.038 2.681-0.084 3.513-0.139 0.839-0.055 1.569-0.135 2.188-0.24v0l0.065 0.122c-0.207 1.003-0.328 2.059-0.361 3.167v0l-0.91 0.105 0.02-0.821c-0.011-0.444-0.077-0.75-0.197-0.918-0.121-0.175-0.373-0.285-0.757-0.33-0.377-0.045-1.044-0.056-2-0.032v0c-0.444 0.011-0.748 0.029-0.911 0.054-0.163 0.031-0.271 0.096-0.324 0.193-0.045 0.097-0.072 0.272-0.079 0.525v0l-0.061 3.703 1.968-0.029c0.492-0.012 1.262-0.103 2.311-0.273v0l0.084 0.1-0.238 1.124c-1.415 0.001-2.303 0.007-2.666 0.015v0c-0.424 0.011-0.914 0.067-1.472 0.17v0l0.02 3.64c0.009 0.369 0.046 0.624 0.111 0.766 0.072 0.142 0.204 0.238 0.397 0.288 0.199 0.043 0.541 0.058 1.027 0.046v0c1.066-0.027 1.823-0.097 2.271-0.211 0.448-0.107 0.764-0.317 0.948-0.629 0.184-0.312 0.317-0.835 0.401-1.569v0z" fill="#ffffff" data-fill-palette-color="primary"></path><path d="M163.921 277.344c-0.319 0.041-0.678-0.079-1.079-0.358-0.4-0.273-0.785-0.668-1.154-1.186v0l-2.492-3.412-1.566 0.2 0.299 2.825c0.061 0.481 0.136 0.823 0.224 1.025 0.094 0.195 0.234 0.318 0.419 0.37 0.185 0.045 0.491 0.041 0.918-0.014v0l0.05 0.066-0.072 0.815c-0.15 0.012-0.453 0.041-0.908 0.085-0.456 0.044-0.931 0.098-1.427 0.162v0c-0.441 0.056-0.829 0.113-1.166 0.17-0.337 0.057-0.563 0.096-0.678 0.117v0l0.066-0.866c0.393-0.105 0.686-0.215 0.877-0.329 0.192-0.114 0.313-0.271 0.364-0.47 0.049-0.206 0.05-0.499 0.001-0.879v0l-0.994-7.943c-0.051-0.4-0.133-0.665-0.246-0.795-0.112-0.123-0.307-0.167-0.585-0.132v0c-0.129 0.016-0.253 0.039-0.374 0.068-0.128 0.023-0.216 0.038-0.263 0.044v0l-0.049-0.066 0.025-0.851c0.151-0.005 0.437-0.028 0.859-0.068 0.415-0.039 0.833-0.086 1.254-0.139v0c0.427-0.055 0.873-0.122 1.338-0.202 0.472-0.081 0.795-0.139 0.97-0.176v0c1.173-0.15 2.132-0.004 2.877 0.439 0.753 0.448 1.188 1.13 1.304 2.044v0c0.097 0.759-0.058 1.485-0.465 2.178-0.401 0.692-1.016 1.294-1.847 1.807v0l2.495 3.029c0.443 0.557 0.852 0.928 1.228 1.114 0.376 0.193 0.818 0.257 1.326 0.193v0l0.08 0.062-0.03 0.655zM159.503 271.471c0.005 0.041 0.185-0.065 0.538-0.317 0.347-0.251 0.646-0.603 0.898-1.055 0.251-0.459 0.335-1.014 0.253-1.665v0c-0.213-1.668-1.475-2.354-3.787-2.058v0c-0.122 0.016-0.203 0.057-0.242 0.124-0.034 0.059-0.046 0.178-0.038 0.356v0c0.131 1.94 0.264 3.497 0.401 4.671v0z" fill="#ffffff" data-fill-palette-color="primary"></path><path d="M171.678 275.761c-0.33-0.576-1.065-1.84-2.205-3.792-1.133-1.954-2.263-3.863-3.39-5.728v0c-0.196-0.333-0.451-0.551-0.762-0.654-0.313-0.11-0.71-0.113-1.191-0.009v0l-0.058-0.07-0.056-0.829c0.16-0.037 0.462-0.096 0.906-0.178 0.444-0.082 0.866-0.169 1.265-0.262v0c0.406-0.094 0.915-0.244 1.527-0.449 0.613-0.198 1.017-0.334 1.21-0.407v0l0.08 0.119 0.099 0.745c-0.655 0.201-1.081 0.377-1.277 0.527-0.197 0.151-0.263 0.363-0.2 0.636v0c0.057 0.246 0.684 1.455 1.882 3.625 1.196 2.164 2.015 3.64 2.458 4.429v0l0.16-0.037c0.829-5.776 1.198-8.86 1.106-9.253v0c-0.062-0.266-0.206-0.433-0.431-0.5-0.221-0.075-0.561-0.059-1.021 0.047v0l-0.968 0.225-0.056-0.061-0.066-0.827c0.163-0.024 0.521-0.082 1.075-0.175 0.562-0.088 1.096-0.191 1.602-0.308v0c0.459-0.106 0.884-0.212 1.273-0.316 0.383-0.103 0.636-0.176 0.76-0.219v0l0.054 0.914c-0.385 0.096-0.637 0.218-0.758 0.365-0.12 0.147-0.209 0.417-0.265 0.808v0l-1.66 10.949z" fill="#ffffff" data-fill-palette-color="primary"></path><path d="M184.951 271.951c-0.972 0.325-1.915 0.38-2.83 0.167-0.923-0.218-1.737-0.681-2.442-1.389-0.705-0.708-1.238-1.604-1.599-2.687v0c-0.394-1.18-0.491-2.343-0.291-3.49 0.2-1.148 0.661-2.152 1.382-3.013 0.726-0.869 1.636-1.487 2.731-1.852v0c0.998-0.333 1.962-0.392 2.892-0.177 0.927 0.209 1.75 0.666 2.467 1.37 0.716 0.698 1.254 1.588 1.616 2.67v0c0.394 1.18 0.486 2.349 0.275 3.507-0.207 1.15-0.679 2.161-1.418 3.034-0.734 0.865-1.662 1.485-2.783 1.86zM185.206 270.839c0.758-0.253 1.366-0.676 1.824-1.269 0.458-0.592 0.73-1.299 0.816-2.12 0.092-0.823-0.014-1.692-0.32-2.606v0c-0.342-1.024-0.82-1.873-1.434-2.547-0.612-0.667-1.304-1.121-2.075-1.36-0.772-0.239-1.559-0.225-2.363 0.043v0c-0.739 0.247-1.327 0.663-1.766 1.249-0.436 0.592-0.695 1.295-0.777 2.108-0.086 0.821 0.024 1.689 0.329 2.603v0c0.342 1.024 0.814 1.875 1.415 2.553 0.601 0.678 1.281 1.139 2.04 1.383 0.756 0.237 1.527 0.225 2.311-0.037z" fill="#ffffff" data-fill-palette-color="primary"></path><path d="M203.422 264.163c-0.18 0.069-0.559 0.213-1.138 0.432-0.576 0.225-1.043 0.429-1.402 0.612v0c-0.353 0.18-0.722 0.404-1.108 0.67-0.383 0.272-0.63 0.449-0.743 0.529v0l-0.296-0.827c0.464-0.368 0.738-0.696 0.821-0.984 0.08-0.294-0.001-0.678-0.243-1.153v0l-3.624-7.138c-0.183-0.359-0.35-0.581-0.501-0.665-0.147-0.078-0.346-0.054-0.595 0.074v0c-0.116 0.059-0.225 0.123-0.328 0.19-0.113 0.065-0.19 0.109-0.233 0.131v0l-0.069-0.046-0.264-0.809c0.134-0.053 0.378-0.162 0.731-0.327 0.359-0.168 0.718-0.344 1.077-0.527v0c0.487-0.249 0.987-0.516 1.502-0.802 0.508-0.282 0.856-0.48 1.044-0.591v0c1.083-0.553 2.16-0.835 3.229-0.844 1.063-0.006 2.025 0.255 2.886 0.782 0.869 0.53 1.558 1.292 2.064 2.284v0c0.566 1.108 0.822 2.254 0.768 3.441-0.048 1.183-0.384 2.268-1.008 3.254-0.624 0.986-1.481 1.758-2.57 2.314zM197.309 254.36c-0.237 0.121-0.382 0.229-0.433 0.324-0.054 0.089-0.05 0.21 0.013 0.362v0c2.055 4.444 3.238 6.971 3.549 7.58v0c0.221 0.432 0.443 0.725 0.668 0.879 0.234 0.157 0.523 0.205 0.867 0.144 0.342-0.067 0.808-0.251 1.398-0.553v0c1.223-0.625 1.97-1.536 2.241-2.734 0.268-1.203 0.027-2.538-0.722-4.005v0c-0.765-1.497-1.8-2.419-3.104-2.765-1.311-0.343-2.803-0.087-4.477 0.768z" fill="#ffffff" data-fill-palette-color="primary"></path><path d="M219.608 254.574c-0.269 0.176-0.644 0.227-1.127 0.151-0.479-0.07-0.998-0.256-1.557-0.56v0l-3.736-1.974-1.319 0.866 1.506 2.407c0.266 0.406 0.483 0.68 0.651 0.824 0.17 0.134 0.349 0.184 0.539 0.149 0.186-0.04 0.459-0.179 0.819-0.415v0l0.074 0.037 0.293 0.764c-0.129 0.077-0.389 0.235-0.78 0.475-0.39 0.24-0.794 0.497-1.211 0.771v0c-0.371 0.244-0.696 0.465-0.974 0.664-0.278 0.199-0.464 0.333-0.557 0.402v0l-0.321-0.807c0.307-0.267 0.522-0.494 0.644-0.68 0.123-0.187 0.163-0.381 0.121-0.582-0.046-0.207-0.174-0.47-0.384-0.791v0l-4.375-6.703c-0.221-0.337-0.411-0.539-0.57-0.607-0.155-0.062-0.35-0.016-0.584 0.138v0c-0.109 0.071-0.21 0.146-0.306 0.225-0.105 0.077-0.177 0.129-0.217 0.155v0l-0.074-0.038-0.35-0.775c0.133-0.071 0.381-0.217 0.743-0.439 0.356-0.217 0.711-0.442 1.065-0.674v0c0.36-0.236 0.731-0.492 1.114-0.768 0.389-0.28 0.653-0.474 0.795-0.583v0c0.988-0.649 1.914-0.938 2.778-0.867 0.873 0.073 1.563 0.495 2.069 1.265v0c0.42 0.64 0.599 1.36 0.536 2.162-0.057 0.798-0.346 1.609-0.867 2.433v0l3.57 1.629c0.642 0.306 1.173 0.46 1.592 0.464 0.423 0.009 0.848-0.128 1.276-0.409v0l0.1 0.02 0.26 0.602zM213.062 251.232c0.022 0.034 0.137-0.139 0.345-0.521 0.202-0.378 0.317-0.825 0.345-1.342 0.025-0.523-0.143-1.059-0.503-1.607v0c-0.922-1.405-2.358-1.469-4.306-0.19v0c-0.103 0.068-0.157 0.14-0.164 0.218-0.004 0.068 0.037 0.18 0.123 0.336v0c0.968 1.686 1.77 3.027 2.408 4.023v0z" fill="#ffffff" data-fill-palette-color="primary"></path><path d="M223.22 251.842l-0.444-0.758c0.404-0.46 0.62-0.839 0.648-1.138 0.029-0.308-0.119-0.673-0.445-1.094v0l-4.887-6.341c-0.247-0.319-0.452-0.506-0.615-0.56-0.159-0.049-0.35 0.012-0.571 0.183v0l-0.614 0.514-0.076-0.032-0.409-0.746c0.162-0.126 0.293-0.218 0.393-0.279v0l1.443-1.066c0.448-0.347 0.988-0.839 1.62-1.475v0l0.47 0.725c-0.373 0.367-0.588 0.663-0.646 0.89-0.054 0.232 0.021 0.502 0.226 0.81v0c0.849 1.218 1.747 2.484 2.696 3.798 0.954 1.31 1.665 2.267 2.134 2.872v0c0.318 0.411 0.575 0.648 0.771 0.712 0.191 0.068 0.419 0 0.684-0.206v0c0.167-0.13 0.422-0.348 0.763-0.655v0l0.076 0.031 0.402 0.804c-0.14 0.109-0.255 0.189-0.345 0.241v0c-0.719 0.522-1.273 0.934-1.662 1.236v0c-0.492 0.381-1.029 0.892-1.612 1.534z" fill="#ffffff" data-fill-palette-color="primary"></path><path d="M232.703 243.916c-0.573-0.335-1.84-1.066-3.8-2.192-1.956-1.13-3.886-2.224-5.791-3.28v0c-0.336-0.191-0.665-0.254-0.987-0.188-0.326 0.061-0.672 0.256-1.037 0.586v0l-0.085-0.032-0.461-0.692c0.12-0.112 0.352-0.313 0.697-0.605 0.344-0.292 0.667-0.578 0.966-0.857v0c0.305-0.284 0.672-0.667 1.101-1.149 0.433-0.477 0.716-0.796 0.848-0.956v0l0.128 0.063 0.457 0.597c-0.468 0.5-0.75 0.865-0.845 1.093-0.095 0.229-0.048 0.446 0.143 0.651v0c0.172 0.185 1.318 0.921 3.437 2.207 2.115 1.281 3.56 2.154 4.336 2.618v0l0.12-0.112c-2.157-5.422-3.372-8.28-3.647-8.576v0c-0.186-0.2-0.394-0.273-0.623-0.218-0.229 0.045-0.516 0.228-0.861 0.548v0l-0.729 0.677-0.078-0.024-0.469-0.685c0.129-0.102 0.411-0.331 0.845-0.687 0.443-0.356 0.855-0.711 1.236-1.064v0c0.345-0.321 0.661-0.624 0.947-0.909 0.281-0.28 0.464-0.469 0.55-0.567v0l0.501 0.765c-0.286 0.275-0.444 0.506-0.475 0.694-0.031 0.187 0.027 0.465 0.173 0.833v0l4.011 10.322z" fill="#ffffff" data-fill-palette-color="primary"></path><path d="M242.822 228.29l0.117 0.022c0.615 0.848 1.293 1.689 2.034 2.521v0l0.022 0.144c-1.854 1.926-3.177 3.328-3.968 4.207v0c-0.626 0.696-1.168 1.394-1.625 2.096v0l-0.58-0.674c0.328-0.477 0.477-0.867 0.447-1.17-0.021-0.304-0.234-0.639-0.64-1.005v0l-5.935-5.372c-0.3-0.27-0.535-0.417-0.706-0.442-0.166-0.02-0.342 0.074-0.529 0.282v0l-0.41 0.5-0.08-0.018-0.536-0.661c0.899-0.937 1.507-1.581 1.823-1.932v0c1.011-1.122 1.782-2.004 2.314-2.647 0.537-0.647 0.981-1.232 1.331-1.753v0l0.133 0.037c0.586 0.84 1.27 1.654 2.051 2.44v0l-0.55 0.733-0.582-0.58c-0.33-0.297-0.597-0.46-0.802-0.487-0.21-0.033-0.463 0.075-0.76 0.322-0.292 0.243-0.758 0.72-1.398 1.431v0c-0.297 0.33-0.493 0.563-0.588 0.698-0.089 0.14-0.117 0.263-0.082 0.367 0.039 0.1 0.148 0.239 0.326 0.419v0l2.647 2.59 1.333-1.448c0.329-0.366 0.793-0.987 1.39-1.866v0l0.131 0.008 0.652 0.946c-0.972 1.028-1.579 1.677-1.822 1.946v0c-0.284 0.315-0.58 0.71-0.889 1.186v0l2.656 2.488c0.274 0.247 0.485 0.396 0.633 0.446 0.152 0.045 0.313 0.015 0.482-0.091 0.168-0.115 0.415-0.353 0.739-0.713v0c0.713-0.792 1.183-1.39 1.409-1.794 0.231-0.399 0.296-0.773 0.195-1.121-0.1-0.348-0.388-0.805-0.863-1.37v0z" fill="#ffffff" data-fill-palette-color="primary"></path><path d="M250.259 228.957l-0.44 0.099-0.154-0.119c0.035-0.535-0.03-1.043-0.193-1.525-0.158-0.477-0.393-0.837-0.706-1.079v0c-0.2-0.155-0.427-0.258-0.682-0.309-0.256-0.06-0.505-0.068-0.748-0.022v0l-0.185-0.196c0.005-0.541 0.101-0.933 0.29-1.176v0c0.172-0.221 0.417-0.325 0.735-0.312 0.318 0.013 0.664 0.165 1.036 0.453v0c0.524 0.406 0.854 1 0.992 1.782 0.143 0.786 0.162 1.587 0.055 2.404z" fill="#ffffff" data-fill-palette-color="primary"></path><path d="M254.714 217.81l-0.691-0.542c0.197-0.559 0.253-0.982 0.169-1.27-0.089-0.291-0.363-0.573-0.821-0.845v0l-6.873-4.105c-0.347-0.206-0.606-0.304-0.779-0.295-0.166 0.013-0.321 0.139-0.464 0.38v0l-0.303 0.571-0.083-0.001-0.654-0.544c0.084-0.141 0.154-0.246 0.211-0.316v0c0.414-0.644 0.723-1.137 0.925-1.477v0c0.272-0.458 0.568-1.07 0.886-1.834v0l0.704 0.501c-0.142 0.36-0.216 0.631-0.22 0.811-0.004 0.18 0.07 0.351 0.221 0.513 0.148 0.152 0.424 0.363 0.827 0.634v0l2.596 1.672 1.65-2.74c0.412-0.693 0.837-1.537 1.277-2.532v0l-2.974-1.777c-0.347-0.206-0.604-0.307-0.773-0.304-0.166 0.013-0.321 0.139-0.464 0.38v0c-0.091 0.153-0.194 0.346-0.309 0.58v0l-0.077-0.01-0.655-0.544c0.082-0.111 0.222-0.321 0.422-0.631 0.2-0.31 0.394-0.624 0.583-0.942v0c0.31-0.523 0.65-1.208 1.017-2.054v0l0.704 0.501c-0.188 0.437-0.262 0.762-0.222 0.977 0.042 0.224 0.22 0.433 0.534 0.626v0c1.192 0.803 2.481 1.644 3.866 2.523 1.392 0.882 2.449 1.537 3.172 1.966v0c0.405 0.241 0.704 0.354 0.895 0.341 0.194-0.02 0.375-0.171 0.543-0.453v0c0.08-0.135 0.212-0.391 0.395-0.767v0l0.083 0.002 0.669 0.6c-0.091 0.153-0.168 0.27-0.232 0.351v0c-0.453 0.709-0.792 1.254-1.019 1.636v0l-1.08 1.898-0.656-0.581c0.205-0.371 0.312-0.665 0.321-0.882 0.013-0.223-0.079-0.436-0.276-0.64-0.199-0.214-0.551-0.47-1.056-0.77v0l-2.477-1.471-1.49 2.489c-0.155 0.274-0.364 0.666-0.627 1.177-0.264 0.511-0.535 1.061-0.813 1.651v0l2.898 1.805c0.447 0.265 0.773 0.391 0.979 0.378 0.203-0.007 0.39-0.154 0.561-0.442v0c0.077-0.129 0.207-0.382 0.39-0.758v0l0.083 0.002 0.669 0.6c-0.068 0.087-0.189 0.265-0.365 0.534-0.172 0.263-0.344 0.539-0.515 0.827v0c-0.297 0.499-0.595 1.049-0.896 1.65-0.291 0.598-0.42 0.915-0.386 0.951z" fill="#ffffff" data-fill-palette-color="primary"></path><path d="M265.309 197.84l-10.881-0.703-0.036 0.085c0.742 0.402 2.133 1.146 4.172 2.232 2.046 1.09 3.162 1.675 3.351 1.756v0c0.358 0.154 0.615 0.049 0.771-0.314v0l0.29-0.724 0.087 0.004 0.717 0.488c-0.063 0.129-0.176 0.356-0.338 0.68-0.162 0.325-0.316 0.656-0.462 0.995v0c-0.124 0.289-0.231 0.596-0.32 0.923-0.098 0.33-0.159 0.542-0.184 0.635v0l-0.773-0.434c0.116-0.389 0.111-0.707-0.013-0.954-0.118-0.244-0.402-0.493-0.851-0.746v0c-1.05-0.586-2.461-1.377-4.235-2.372-1.78-0.998-2.78-1.544-2.999-1.638v0c-0.301-0.13-0.579-0.108-0.832 0.066-0.26 0.171-0.519 0.513-0.778 1.027v0l-0.109 0.02-0.56-0.409c0.077-0.145 0.225-0.435 0.442-0.87 0.217-0.435 0.376-0.768 0.475-1.001v0c0.089-0.207 0.178-0.44 0.268-0.699 0.089-0.259 0.145-0.432 0.168-0.519v0c1.709 0.178 3.303 0.329 4.783 0.453 1.476 0.115 2.654 0.195 3.535 0.24 0.878 0.051 1.423 0.081 1.635 0.09v0l0.041-0.094c-0.356-0.347-1.222-1.163-2.596-2.446-1.368-1.281-2.949-2.714-4.744-4.299v0c-0.013-0.005 0.061-0.16 0.221-0.462v0l0.315-0.68c0.095-0.22 0.222-0.559 0.383-1.018 0.161-0.459 0.27-0.765 0.329-0.918v0l0.078 0 0.613 0.364c-0.16 0.526-0.212 0.924-0.157 1.194 0.059 0.278 0.232 0.48 0.521 0.604v0c0.257 0.111 1.234 0.468 2.931 1.073 1.697 0.604 3.168 1.119 4.413 1.544v0c0.501 0.149 0.877 0.244 1.127 0.285 0.253 0.035 0.445 0.021 0.576-0.042 0.134-0.069 0.241-0.197 0.323-0.386v0c0.043-0.1 0.079-0.2 0.107-0.3 0.028-0.1 0.05-0.168 0.066-0.206v0l0.091-0.005 0.722 0.501c-0.064 0.114-0.171 0.328-0.321 0.642-0.15 0.315-0.301 0.648-0.453 1v0c-0.135 0.314-0.265 0.675-0.388 1.082-0.133 0.412-0.217 0.677-0.254 0.795v0l-0.781-0.414c0.113-0.383 0.135-0.686 0.068-0.909-0.074-0.225-0.24-0.393-0.497-0.504v0c-0.245-0.105-1.417-0.51-3.518-1.214-2.106-0.707-3.539-1.19-4.297-1.45v0l-0.041 0.094 7.859 7.382z" fill="#ffffff" data-fill-palette-color="primary"></path><path d="M269.35 187.288l-0.795-0.372c0.072-0.608 0.035-1.043-0.111-1.305-0.15-0.27-0.48-0.487-0.987-0.649v0l-7.621-2.453c-0.384-0.123-0.659-0.16-0.825-0.113-0.159 0.05-0.282 0.208-0.366 0.475v0l-0.214 0.771-0.081 0.017-0.76-0.382c0.062-0.195 0.118-0.346 0.166-0.453v0l0.584-1.696c0.172-0.54 0.338-1.251 0.498-2.133v0l0.798 0.33c-0.099 0.513-0.109 0.88-0.028 1.099 0.087 0.221 0.302 0.401 0.646 0.54v0c1.39 0.522 2.848 1.056 4.374 1.6 1.528 0.538 2.657 0.923 3.386 1.156v0c0.495 0.158 0.841 0.207 1.04 0.149 0.196-0.052 0.345-0.238 0.446-0.557v0c0.064-0.202 0.15-0.526 0.257-0.973v0l0.081-0.017 0.786 0.434c-0.054 0.169-0.103 0.301-0.147 0.394v0c-0.296 0.838-0.519 1.491-0.668 1.96v0c-0.189 0.592-0.342 1.318-0.459 2.178z" fill="#ffffff" data-fill-palette-color="primary"></path></g></svg></g></svg></g></svg></g></svg></g><defs></defs></svg><rect width="279.72" height="279.72" fill="none" stroke="none" visibility="hidden"></rect></g></svg></g></svg>